<svg xmlns="http://www.w3.org/2000/svg" xmlns:xlink="http://www.w3.org/1999/xlink" preserveAspectRatio="xMidYMid" width="71.28" height="95.57" viewBox="0 0 71.28 95.57">
  <defs>
    <style>
      .cls-1 {
        fill: #12b56c;
      }

      .cls-1, .cls-2, .cls-3 {
        fill-rule: evenodd;
      }

      .cls-2 {
        fill: #19d882;
      }

      .cls-3 {
        fill: #4eeba5;
      }
    </style>
  </defs>
  <g>
    <path d="M70.557,4.279 L66.985,0.708 C66.509,0.232 65.961,-0.006 65.342,-0.006 C64.723,-0.006 64.175,0.232 63.699,0.708 L35.628,28.779 L7.557,0.708 C7.080,0.232 6.532,-0.006 5.914,-0.006 C5.294,-0.006 4.746,0.232 4.271,0.708 L0.700,4.279 C0.223,4.756 -0.015,5.304 -0.015,5.922 C-0.015,6.542 0.223,7.089 0.700,7.565 L33.985,40.851 C34.461,41.327 35.009,41.565 35.628,41.565 C36.246,41.565 36.794,41.327 37.271,40.851 L70.557,7.565 C71.032,7.089 71.271,6.542 71.271,5.922 C71.271,5.304 71.032,4.756 70.557,4.279 L70.557,4.279 Z" class="cls-1"/>
    <path d="M70.557,31.279 L66.985,27.708 C66.509,27.232 65.961,26.993 65.342,26.993 C64.723,26.993 64.175,27.232 63.699,27.708 L35.628,55.779 L7.557,27.708 C7.080,27.232 6.532,26.993 5.914,26.993 C5.294,26.993 4.746,27.232 4.271,27.708 L0.700,31.279 C0.223,31.756 -0.015,32.304 -0.015,32.922 C-0.015,33.542 0.223,34.090 0.700,34.565 L33.985,67.851 C34.461,68.327 35.009,68.565 35.628,68.565 C36.246,68.565 36.794,68.327 37.271,67.851 L70.557,34.565 C71.032,34.090 71.271,33.542 71.271,32.922 C71.271,32.304 71.032,31.756 70.557,31.279 L70.557,31.279 Z" class="cls-2"/>
    <path d="M70.557,58.279 L66.985,54.708 C66.509,54.232 65.961,53.994 65.342,53.994 C64.723,53.994 64.175,54.232 63.699,54.708 L35.628,82.779 L7.557,54.708 C7.080,54.232 6.532,53.994 5.914,53.994 C5.294,53.994 4.746,54.232 4.271,54.708 L0.700,58.279 C0.223,58.756 -0.015,59.304 -0.015,59.922 C-0.015,60.542 0.223,61.090 0.700,61.565 L33.985,94.851 C34.461,95.327 35.009,95.565 35.628,95.565 C36.246,95.565 36.794,95.327 37.271,94.851 L70.557,61.565 C71.032,61.090 71.271,60.542 71.271,59.922 C71.271,59.304 71.032,58.756 70.557,58.279 L70.557,58.279 Z" class="cls-3"/>
  </g>
</svg>
