<svg xmlns="http://www.w3.org/2000/svg" xmlns:xlink="http://www.w3.org/1999/xlink" preserveAspectRatio="xMidYMid" width="188" height="90" viewBox="0 0 188 90">
  <defs>
    <style>
      .cls-1 {
        fill: #f7f7f7;
        fill-rule: evenodd;
      }
    </style>
  </defs>
  <path d="M187.819,31.041 L174.279,66.949 L172.723,71.081 C172.357,71.938 171.793,73.254 171.031,75.030 C170.267,76.805 169.613,78.153 169.064,79.071 L166.868,82.469 C165.953,83.877 165.038,84.933 164.124,85.638 C163.209,86.341 162.171,87.075 161.013,87.842 C159.854,88.607 158.573,89.157 157.171,89.495 C155.767,89.830 154.273,90.000 152.688,90.000 C149.699,90.000 148.205,88.622 148.205,85.867 C148.205,83.112 149.089,81.734 150.858,81.734 C153.603,81.734 156.316,80.417 159.000,77.785 C161.684,75.152 163.330,71.449 163.941,66.673 L148.571,31.041 C148.327,30.735 148.205,30.306 148.205,29.755 C148.205,28.593 148.906,27.536 150.309,26.587 C151.712,25.638 153.114,25.163 154.518,25.163 C156.041,25.163 157.018,25.746 157.445,26.908 L168.972,56.755 L178.853,26.908 C179.402,25.746 180.317,25.163 181.597,25.163 C182.878,25.163 184.265,25.638 185.760,26.587 C187.254,27.536 188.002,28.653 188.002,29.939 C188.002,30.490 187.940,30.857 187.819,31.041 ZM139.240,69.336 C138.081,69.336 137.059,68.996 136.176,68.315 C135.291,67.633 134.849,66.890 134.849,66.084 L134.849,62.832 C133.873,64.812 132.210,66.514 129.863,67.937 C127.514,69.359 124.969,70.071 122.224,70.071 C117.954,70.071 114.203,68.220 110.971,64.515 C107.738,60.811 106.122,56.571 106.122,51.796 L106.122,43.347 C106.122,38.388 107.723,34.133 110.925,30.581 C114.127,27.031 117.984,25.255 122.499,25.255 C125.182,25.255 127.560,25.936 129.634,27.297 C131.707,28.659 133.294,30.329 134.392,32.309 L134.392,3.121 C134.392,2.203 134.849,1.454 135.764,0.872 C136.679,0.291 137.837,-0.000 139.240,-0.000 C140.643,-0.000 141.786,0.291 142.671,0.871 C143.555,1.452 143.998,2.201 143.998,3.118 L143.998,66.127 C143.998,66.922 143.540,67.656 142.625,68.328 C141.711,69.001 140.581,69.336 139.240,69.336 ZM134.392,43.375 C134.392,40.577 133.445,38.297 131.556,36.534 C129.664,34.770 127.499,33.887 125.060,33.887 C122.558,33.887 120.379,34.862 118.519,36.808 C116.658,38.753 115.729,40.943 115.729,43.375 L115.729,51.769 C115.729,54.262 116.643,56.498 118.473,58.474 C120.303,60.451 122.467,61.439 124.969,61.439 C127.347,61.439 129.511,60.512 131.464,58.656 C133.415,56.802 134.392,55.205 134.392,53.866 L134.392,43.375 ZM82.885,70.071 C77.762,70.071 73.325,68.266 69.574,64.653 C65.823,61.041 63.947,56.817 63.947,51.979 L63.947,29.020 C63.947,28.164 64.435,27.413 65.411,26.770 C66.386,26.127 67.515,25.806 68.796,25.806 C70.077,25.806 71.189,26.127 72.135,26.769 C73.080,27.410 73.553,28.158 73.553,29.012 L73.553,51.912 C73.553,54.356 74.483,56.554 76.344,58.508 C78.204,60.463 80.383,61.439 82.885,61.439 C85.447,61.439 87.642,60.477 89.472,58.553 C91.302,56.630 92.217,54.416 92.217,51.912 L92.217,28.920 C92.217,28.066 92.688,27.334 93.635,26.723 C94.580,26.112 95.723,25.806 97.065,25.806 C98.406,25.806 99.520,26.113 100.405,26.724 C101.288,27.337 101.731,28.072 101.731,28.928 L101.731,51.979 C101.731,56.817 99.870,61.041 96.151,64.653 C92.430,68.266 88.008,70.071 82.885,70.071 ZM56.720,32.969 L45.559,32.969 L45.559,55.010 C45.559,57.214 46.031,58.775 46.977,59.694 C47.922,60.612 49.585,61.071 51.963,61.071 L55.165,61.071 C56.446,61.071 57.452,61.470 58.184,62.265 C58.916,63.062 59.282,64.042 59.282,65.204 C59.282,66.368 58.916,67.348 58.184,68.143 C57.452,68.939 56.446,69.336 55.165,69.336 L51.963,69.336 C41.289,69.336 35.953,64.561 35.953,55.010 L35.953,9.000 C35.953,8.143 36.441,7.408 37.417,6.796 C38.392,6.185 39.490,5.877 40.710,5.877 C41.930,5.877 43.043,6.185 44.050,6.796 C45.056,7.408 45.559,8.143 45.559,9.000 L45.559,25.806 L56.720,25.806 C57.512,25.806 58.153,26.159 58.642,26.862 C59.129,27.567 59.373,28.409 59.373,29.388 C59.373,30.368 59.129,31.210 58.642,31.913 C58.153,32.618 57.512,32.969 56.720,32.969 ZM17.657,43.598 C19.852,44.152 22.014,44.829 24.144,45.630 C26.273,46.431 28.088,47.817 29.587,49.788 C31.086,51.760 31.837,54.285 31.837,57.365 C31.837,61.327 30.433,64.435 27.629,66.689 C24.823,68.945 20.859,70.071 15.735,70.071 C11.404,70.071 7.699,69.306 4.620,67.775 C1.539,66.246 -0.000,64.561 -0.000,62.724 C-0.000,61.806 0.321,60.857 0.968,59.877 C1.614,58.899 2.397,58.408 3.319,58.408 C3.872,58.408 4.641,58.768 5.625,59.487 C6.608,60.207 7.929,60.926 9.589,61.645 C11.248,62.366 13.247,62.724 15.583,62.724 C20.807,62.724 23.420,61.061 23.420,57.735 C23.420,55.949 22.657,54.546 21.133,53.531 C19.608,52.515 17.762,51.714 15.598,51.128 C13.433,50.543 11.283,49.882 9.148,49.142 C7.013,48.404 5.183,47.141 3.659,45.354 C2.134,43.568 1.372,41.257 1.372,38.423 C1.372,34.828 2.653,31.734 5.215,29.142 C7.776,26.551 11.710,25.255 17.016,25.255 C20.493,25.255 23.649,25.792 26.485,26.862 C29.321,27.934 30.739,29.204 30.739,30.673 C30.739,31.531 30.387,32.526 29.687,33.658 C28.985,34.792 28.116,35.357 27.080,35.357 C26.714,35.357 25.463,34.898 23.329,33.979 C21.193,33.061 19.150,32.602 17.199,32.602 C14.759,32.602 12.914,33.157 11.664,34.265 C10.413,35.374 9.789,36.607 9.789,37.961 C9.789,39.439 10.551,40.610 12.076,41.473 C13.600,42.335 15.461,43.044 17.657,43.598 Z" class="cls-1"/>
</svg>
